<svg width="38" height="27" viewBox="0 0 38 27" fill="none" xmlns="http://www.w3.org/2000/svg">
<path fill-rule="evenodd" clip-rule="evenodd" d="M35 0C36.6568 0 38 1.34315 38 2.99999V5.7L19 15.2L0 5.7V2.99999C0 1.34315 1.34315 0 2.99999 0H35V0Z" fill="#1BA986"/>
<path fill-rule="evenodd" clip-rule="evenodd" d="M13.0625 14.7256L19 18.0506L24.9375 14.7256L35.9909 24.3722C36.687 24.9797 36.2573 26.1256 35.3333 26.1256H2.66665C1.74268 26.1256 1.31298 24.9797 2.00914 24.3722L13.0625 14.7256V14.7256Z" fill="#1BA986"/>
<path fill-rule="evenodd" clip-rule="evenodd" d="M0 8.3125V21.4828C0 22.352 1.0324 22.8074 1.67427 22.2213L10.925 13.775L0 8.3125V8.3125Z" fill="#1BA986"/>
<path fill-rule="evenodd" clip-rule="evenodd" d="M38 8.3125V21.4828C38 22.352 36.9675 22.8074 36.3257 22.2213L27.075 13.775L38 8.3125V8.3125Z" fill="#1BA986"/>
</svg>
