<svg width="38" height="38" viewBox="0 0 38 38" fill="none" xmlns="http://www.w3.org/2000/svg">
<path fill-rule="evenodd" clip-rule="evenodd" d="M27.2736 22.9188C26.5935 22.9188 25.9999 23.0699 25.5142 23.383C24.0785 24.3006 22.9344 25.0131 22.3839 25.0131C22.0816 25.0131 21.7578 24.7432 21.0454 24.1278L20.9267 24.0199C18.9514 22.3034 18.5304 21.8608 17.764 21.0619L17.5698 20.8568C17.4294 20.7165 17.3107 20.5869 17.192 20.4682C16.5227 19.7773 16.037 19.2807 14.3208 17.3375L14.2452 17.2511C13.4248 16.3227 12.8851 15.7182 12.8527 15.2756C12.8204 14.8438 13.1982 14.142 14.1588 12.8358C15.3246 11.2597 15.3678 9.31646 14.2991 7.06021C13.4464 5.27896 12.054 3.57329 10.8235 2.07271L10.7155 1.94317C9.6577 0.64771 8.42718 0 7.05637 0C5.5344 0 4.2715 0.820458 3.60225 1.25229C3.54829 1.28467 3.49433 1.32783 3.44037 1.36021C1.93998 2.31021 0.849794 3.61646 0.439622 4.94433C-0.175636 6.94146 -0.585808 9.53238 2.36094 14.9193C4.90835 19.583 7.21825 22.7136 10.8883 26.4813C14.3423 30.0222 15.8751 31.1665 19.3076 33.6494C23.1287 36.4131 26.7986 38 29.3676 38C31.7531 38 33.6313 38 36.3082 34.7722C39.1147 31.3824 37.9489 29.3097 36.265 27.5716C34.6891 25.9523 30.2095 22.9188 27.2736 22.9188V22.9188Z" fill="#1BA986"/>
</svg>
