<svg width="63" height="62" viewBox="0 0 63 62" fill="none" xmlns="http://www.w3.org/2000/svg">
<path fill-rule="evenodd" clip-rule="evenodd" d="M21.1109 15.2657C21.1109 15.9914 21.7046 16.5851 22.4303 16.5851H40.8495C41.5752 16.5851 42.169 15.9914 42.169 15.2657C42.169 14.54 41.5752 13.9463 40.8495 13.9463H22.4303C21.7046 13.9463 21.1109 14.54 21.1109 15.2657V15.2657Z" fill="#0E3B51"/>
<path fill-rule="evenodd" clip-rule="evenodd" d="M21.1109 46.7473C21.1109 47.473 21.7046 48.0667 22.4303 48.0667H53.173C53.8987 48.0667 54.4924 47.473 54.4924 46.7473C54.4924 46.0216 53.8987 45.4279 53.173 45.4279H22.4303C21.7046 45.4279 21.1109 46.0216 21.1109 46.7473V46.7473Z" fill="#0E3B51"/>
<path fill-rule="evenodd" clip-rule="evenodd" d="M29.7267 22.0212C30.2018 22.7996 30.624 23.6177 30.967 24.4621H53.173C53.8987 24.4621 54.4924 23.8684 54.4924 23.1427C54.4924 22.417 53.8987 21.8232 53.173 21.8232H30.3733C30.1436 21.8281 29.9198 21.8966 29.7267 22.0212V22.0212Z" fill="#0E3B51"/>
<path fill-rule="evenodd" clip-rule="evenodd" d="M32.1809 29.7004C32.2073 30.1359 32.2469 30.5713 32.2469 31.0067C32.2469 31.4421 32.2073 31.8775 32.1809 32.3129C32.2073 32.3129 32.2205 32.3261 32.2469 32.3261H53.173C53.8987 32.3261 54.4924 31.7324 54.4924 31.0067C54.4924 30.281 53.8987 29.6873 53.173 29.6873H32.2469C32.2205 29.6873 32.2073 29.7004 32.1809 29.7004V29.7004Z" fill="#0E3B51"/>
<path fill-rule="evenodd" clip-rule="evenodd" d="M29.7267 39.992C29.9246 40.0975 30.1358 40.1899 30.3733 40.1899H53.173C53.8987 40.1899 54.4924 39.5961 54.4924 38.8705C54.4924 38.1448 53.8987 37.551 53.173 37.551H30.967C30.624 38.4087 30.2018 39.2135 29.7267 39.992V39.992Z" fill="#0E3B51"/>
<path fill-rule="evenodd" clip-rule="evenodd" d="M61.9341 14.8304L61.8944 14.7117C61.8285 14.5797 61.7493 14.4477 61.6438 14.3422V14.329L47.6842 0.382664C47.5787 0.277078 47.4467 0.197904 47.3147 0.131936C47.2752 0.105524 47.2224 0.105524 47.1828 0.079174C47.0733 0.037014 46.9571 0.014694 46.8398 0.013206C46.8134 0.013206 46.787 0 46.7474 0H18.538C15.8068 0 13.5769 2.22983 13.5769 4.96105V13.6297C13.986 13.6033 14.3818 13.5637 14.7908 13.5637C15.2658 13.5637 15.7408 13.6033 16.2158 13.6297V4.96105C16.2158 3.68119 17.2581 2.63884 18.538 2.63884H45.4148V12.3498C45.4148 14.6853 47.3147 16.5852 49.6501 16.5852H59.3612V57.0522C59.3612 58.332 58.3188 59.3744 57.0389 59.3744H18.538C17.2581 59.3744 16.2158 58.332 16.2158 57.0522V48.3703C15.7408 48.4098 15.279 48.4363 14.7908 48.4363C14.3818 48.4363 13.9728 48.3967 13.5769 48.3703V57.0389C13.5769 59.7702 15.8068 62 18.538 62H57.0522C59.7834 62 62.0132 59.7702 62.0132 57.0389V15.2658C62.0132 15.2394 62 15.213 62 15.1867C61.9868 15.0679 61.9736 14.9491 61.9341 14.8304V14.8304Z" fill="#0E3B51"/>
<path fill-rule="evenodd" clip-rule="evenodd" d="M14.804 45.8105C22.9713 45.8105 29.608 39.1738 29.608 31.0065C29.608 22.8392 22.9713 16.2025 14.804 16.2025C6.63672 16.2025 0 22.8392 0 31.0065C0 39.1738 6.63672 45.8105 14.804 45.8105V45.8105ZM12.7985 36.4425C12.4554 36.4425 12.1256 36.3106 11.8617 36.0599L7.62629 31.7981C7.37959 31.5514 7.241 31.2168 7.241 30.8679C7.241 30.5191 7.37959 30.1844 7.62629 29.9378C7.873 29.691 8.2076 29.5524 8.55649 29.5524C8.90538 29.5524 9.23999 29.691 9.48669 29.9378L12.8117 33.2627L20.1213 25.9531C20.6359 25.4385 21.4671 25.4385 21.9817 25.9531C22.4963 26.4677 22.5095 27.2989 21.9817 27.8135L13.7352 36.0599C13.4714 36.3238 13.1415 36.4425 12.7985 36.4425V36.4425Z" fill="#1BA986"/>
</svg>
